<svg xmlns="http://www.w3.org/2000/svg" width="12" height="12" viewBox="0 0 12 12">
    <path data-name="패스 266437" d="M1.7.1A2.537 2.537 0 0 1 .652-.116a2 2 0 0 1-.78-.6l.72-.864a1.294 1.294 0 0 0 1.04.616q.792 0 .792-.928V-4.56H.456V-5.6h3.256v3.632A2.113 2.113 0 0 1 3.2-.42 2.029 2.029 0 0 1 1.7.1z" transform="translate(4 9)" style="fill:#ff9600"/>
    <path data-name="패스 266436" d="M6 12a6 6 0 1 1 6-6 6.006 6.006 0 0 1-6 6M6 1a5 5 0 1 0 5 5 5.006 5.006 0 0 0-5-5" style="fill:#ff9600"/>
</svg>
