<svg xmlns="http://www.w3.org/2000/svg" width="32" height="32" viewBox="0 0 32 32">
    <path data-name="사각형 35152" style="fill:none" d="M0 0h32v32H0z"/>
    <g data-name="그룹 93334">
        <path data-name="패스 266439" d="M4.994 23.056a.576.576 0 0 1-.505-.3.8.8 0 0 1 0-.987l1.679-2.15A8.023 8.023 0 0 1 9 4.095h5.6a8.022 8.022 0 0 1 .083 16.044H11.46c-4.447 2.272-5.869 2.918-6.466 2.918M14.586 5.7H9.005a6.422 6.422 0 0 0-1.319 12.7.8.8 0 0 1 .465 1.275l-.362.464a133.483 133.483 0 0 0 3.114-1.512.8.8 0 0 1 .364-.088h3.4A6.422 6.422 0 0 0 14.586 5.7" style="fill:#fff" transform="translate(-.284 -.189)"/>
        <path data-name="패스 266440" d="M28.155 28.284a.79.79 0 0 1-.3-.059 42.667 42.667 0 0 1-4.755-2.274h-2.249a6.578 6.578 0 0 1-.01-13.155h4.165a6.578 6.578 0 0 1 3.04 12.404 20.8 20.8 0 0 0 .829 1.929.8.8 0 0 1-.72 1.15m-4.843-3.933a.8.8 0 0 1 .393.1c.945.533 1.916 1.03 2.9 1.487-.371-1.023-.271-1.284-.2-1.462a.946.946 0 0 1 .482-.5A4.978 4.978 0 0 0 25 14.4h-4.149a4.978 4.978 0 0 0 .011 9.955z" style="fill:#fff" transform="translate(-.284 -.189)"/>
    </g>
</svg>
