<svg xmlns="http://www.w3.org/2000/svg" width="18" height="18" viewBox="0 0 18 18">
    <defs>
        <clipPath id="aghw3d0r3a">
            <path data-name="패스 266420" d="M5.691 6H3l1.5 9.891A1.458 1.458 0 0 0 6 17.3h7.5a1.458 1.458 0 0 0 1.5-1.409L16.5 6H5.691z" transform="translate(-3 -6)" style="fill:#ff6e00"/>
        </clipPath>
    </defs>
    <g data-name="그룹 93330">
        <path data-name="패스 266398" d="M5.691 6H3l1.5 9.75a1.5 1.5 0 0 0 1.5 1.5h7.5a1.5 1.5 0 0 0 1.5-1.5L16.5 6H5.691z" transform="translate(-.75 -.777)" style="fill:#ff9600"/>
        <path data-name="패스 266428" d="M6.75 4.5A.749.749 0 0 1 6 3.75a2.25 2.25 0 0 0-4.5 0 .75.75 0 0 1-1.5 0 3.75 3.75 0 0 1 7.5 0 .75.75 0 0 1-.75.75" transform="translate(5.25 1.473)" style="fill:#ffc43e"/>
        <g data-name="마스크 그룹 124" transform="translate(2.25 5.223)" style="clip-path:url(#aghw3d0r3a)">
            <circle data-name="타원 154" cx="8.25" cy="8.25" r="8.25" transform="translate(-5.25 -8.25)" style="fill:#ffc43e"/>
        </g>
    </g>
</svg>
