<svg xmlns="http://www.w3.org/2000/svg" width="18" height="18" viewBox="0 0 18 18">
    <defs>
        <clipPath id="axf028xh3a">
            <path data-name="합치기 55" d="M6.751 15C3.021 15 0 15.194 0 12.724s3.021-4.472 6.751-4.472 6.749 2 6.749 4.472c0 2.13-2.247 2.276-5.257 2.276H6.751zM3 3.376a3.376 3.376 0 1 1 3.375 3.376A3.376 3.376 0 0 1 3 3.376z" style="fill:#ff6e00"/>
        </clipPath>
    </defs>
    <path data-name="합치기 54" d="M6.751 15C3.021 15 0 15.194 0 12.724s3.021-4.472 6.751-4.472 6.749 2 6.749 4.472c0 2.13-2.247 2.276-5.257 2.276H6.751zM3 3.376a3.376 3.376 0 1 1 3.375 3.376A3.376 3.376 0 0 1 3 3.376z" style="fill:#ff9600" transform="translate(3 1.499)"/>
    <g data-name="마스크 그룹 123" style="clip-path:url(#axf028xh3a)" transform="translate(3 1.499)">
        <circle data-name="타원 147" cx="7.5" cy="7.5" r="7.5" transform="translate(-4.5 -2.999)" style="fill:#ffc43e"/>
    </g>
</svg>
