<svg xmlns="http://www.w3.org/2000/svg" width="16" height="16" viewBox="0 0 16 16">
    <g data-name="그룹 93379">
        <path data-name="패스 266453" d="M8 13.466A5.466 5.466 0 1 0 2.533 8 5.473 5.473 0 0 0 8 13.466m0 1.2A6.667 6.667 0 1 1 14.667 8 6.667 6.667 0 0 1 8 14.666" style="fill:#fff"/>
        <path data-name="패스 266454" d="M7.283 14.276c-.192-.129-1.878-1.4-1.878-6.276s1.686-6.147 1.878-6.276l.682.987c-.013.01-1.36 1.076-1.36 5.289s1.347 5.279 1.36 5.29z" style="fill:#fff"/>
        <path data-name="패스 266455" d="m8.719 14.276-.669-1S9.4 12.213 9.4 8 8.05 2.721 8.037 2.711l.682-.987C8.911 1.853 10.6 3.126 10.6 8s-1.685 6.147-1.877 6.276" style="fill:#fff"/>
        <path data-name="사각형 35200" transform="translate(2.088 7.395)" style="fill:#fff" d="M0 0h11.45v1.2H0z"/>
    </g>
</svg>
