<svg xmlns="http://www.w3.org/2000/svg" width="18" height="18" viewBox="0 0 18 18">
    <defs>
        <clipPath id="v306pwseya">
            <path data-name="빼기 4" d="M12.75 8.875A3.458 3.458 0 0 1 10.116 7.6 4.838 4.838 0 0 1 9 4.5H7.5a4.836 4.836 0 0 1-1.116 3.1A3.457 3.457 0 0 1 3.75 8.875C1.682 8.875 0 6.884 0 4.438S1.682 0 3.75 0h9c2.068 0 3.75 1.991 3.75 4.438s-1.682 4.437-3.75 4.437zM1.5 3.686v1.5H3v1.5h1.5v-1.5H6v-1.5H4.5v-1.5H3v1.5zm13.118.189a.938.938 0 1 0 .936.937.939.939 0 0 0-.936-.937zm-3.749 0a.938.938 0 1 0 .935.937.938.938 0 0 0-.935-.937zM12.743 2a.938.938 0 1 0 .935.935.938.938 0 0 0-.935-.935z" style="fill:#ffc43e"/>
        </clipPath>
    </defs>
    <g data-name="그룹 93325">
        <path data-name="빼기 2" d="M12.75 8.875A3.458 3.458 0 0 1 10.116 7.6 4.838 4.838 0 0 1 9 4.5H7.5a4.836 4.836 0 0 1-1.116 3.1A3.457 3.457 0 0 1 3.75 8.875C1.682 8.875 0 6.884 0 4.438S1.682 0 3.75 0h9c2.068 0 3.75 1.991 3.75 4.438s-1.682 4.437-3.75 4.437zM1.5 3.686v1.5H3v1.5h1.5v-1.5H6v-1.5H4.5v-1.5H3v1.5zm13.118.189a.938.938 0 1 0 .936.937.939.939 0 0 0-.936-.937zm-3.749 0a.938.938 0 1 0 .935.937.938.938 0 0 0-.935-.937zM12.743 2a.938.938 0 1 0 .935.935.938.938 0 0 0-.935-.935z" style="fill:#ff9600" transform="translate(.75 5.249)"/>
        <g data-name="그룹 93326">
            <g data-name="마스크 그룹 125" transform="translate(.75 5.249)" style="clip-path:url(#v306pwseya)">
                <circle data-name="타원 155" cx="6.876" cy="6.876" transform="translate(-3.439 -8.938)" style="fill:#ffc43e" r="6.876"/>
            </g>
        </g>
    </g>
</svg>
