<svg xmlns="http://www.w3.org/2000/svg" width="18" height="18" viewBox="0 0 18 18">
    <defs>
        <clipPath id="u203mf9yba">
            <path data-name="패스 266422" d="M0 8.941a15.119 15.119 0 0 1 .291-2.7A14.1 14.1 0 0 1 1.244 3.3a12.683 12.683 0 0 1 1.207-2.16 1.371 1.371 0 0 1 .687-.4c.544-.2 1.1-.38 1.653-.537.333-.092.684-.124 1.027-.19a.189.189 0 0 1 .221.105 1.539 1.539 0 0 1 .239.416c.059.3.219.282.464.258a13.331 13.331 0 0 1 3.2.025.2.2 0 0 0 .258-.162.515.515 0 0 1 .047-.155c.109-.162.151-.395.323-.48s.353.073.537.1a9.734 9.734 0 0 1 2.758.9c.282.14.378.437.524.674a13.216 13.216 0 0 1 .719 1.339 15.908 15.908 0 0 1 .831 2.188 17.59 17.59 0 0 1 .474 2.419 11.709 11.709 0 0 1 .034 2.58.511.511 0 0 1-.255.417c-.412.26-.8.56-1.231.789a12.883 12.883 0 0 1-2.534 1.093c-.2.057-.312-.068-.4-.2-.2-.3-.376-.623-.566-.933-.1-.166-.119-.282.107-.367.313-.117.615-.264.92-.4.086-.039.214-.093.179-.2a.273.273 0 0 0-.313-.186c-.115.043-.238.064-.35.114a9.006 9.006 0 0 1-4.347.758 9.623 9.623 0 0 1-2.265-.423c-.4-.125-.771-.314-1.17-.435a.29.29 0 0 0-.354.15c-.077.137.093.184.186.228.311.147.625.289.943.418.154.062.162.148.09.269-.209.351-.411.706-.632 1.05a.341.341 0 0 1-.444.129 13.437 13.437 0 0 1-2.194-.946C1.292 11.273.8 10.942.3 10.63a.459.459 0 0 1-.23-.4C.048 9.8.023 9.371 0 8.941m10.962-.388a1.356 1.356 0 0 0 1.322-.85A1.764 1.764 0 0 0 12 5.732a1.324 1.324 0 0 0-1.542-.358A1.645 1.645 0 0 0 9.583 7.3a1.39 1.39 0 0 0 1.378 1.252m-5.4 0c.152-.028.331.023.5-.075a1.628 1.628 0 0 0 .907-1.287 1.806 1.806 0 0 0-.233-1.23 1.367 1.367 0 0 0-1.967-.453 1.861 1.861 0 0 0-.62 1.919 1.423 1.423 0 0 0 1.409 1.127" style="fill:#ff6e00"/>
        </clipPath>
    </defs>
    <g data-name="그룹 93328">
        <path data-name="패스 266421" d="M0 8.941a15.119 15.119 0 0 1 .291-2.7A14.1 14.1 0 0 1 1.244 3.3a12.683 12.683 0 0 1 1.207-2.16 1.371 1.371 0 0 1 .687-.4c.544-.2 1.1-.38 1.653-.537.333-.092.684-.124 1.027-.19a.189.189 0 0 1 .221.105 1.539 1.539 0 0 1 .239.416c.059.3.219.282.464.258a13.331 13.331 0 0 1 3.2.025.2.2 0 0 0 .258-.162.515.515 0 0 1 .047-.155c.109-.162.151-.395.323-.48s.353.073.537.1a9.734 9.734 0 0 1 2.758.9c.282.14.378.437.524.674a13.216 13.216 0 0 1 .719 1.339 15.908 15.908 0 0 1 .831 2.188 17.59 17.59 0 0 1 .474 2.419 11.709 11.709 0 0 1 .034 2.58.511.511 0 0 1-.255.417c-.412.26-.8.56-1.231.789a12.883 12.883 0 0 1-2.534 1.093c-.2.057-.312-.068-.4-.2-.2-.3-.376-.623-.566-.933-.1-.166-.119-.282.107-.367.313-.117.615-.264.92-.4.086-.039.214-.093.179-.2a.273.273 0 0 0-.313-.186c-.115.043-.238.064-.35.114a9.006 9.006 0 0 1-4.347.758 9.623 9.623 0 0 1-2.265-.423c-.4-.125-.771-.314-1.17-.435a.29.29 0 0 0-.354.15c-.077.137.093.184.186.228.311.147.625.289.943.418.154.062.162.148.09.269-.209.351-.411.706-.632 1.05a.341.341 0 0 1-.444.129 13.437 13.437 0 0 1-2.194-.946C1.292 11.273.8 10.942.3 10.63a.459.459 0 0 1-.23-.4C.048 9.8.023 9.371 0 8.941m10.962-.388a1.356 1.356 0 0 0 1.322-.85A1.764 1.764 0 0 0 12 5.732a1.324 1.324 0 0 0-1.542-.358A1.645 1.645 0 0 0 9.583 7.3a1.39 1.39 0 0 0 1.378 1.252m-5.4 0c.152-.028.331.023.5-.075a1.628 1.628 0 0 0 .907-1.287 1.806 1.806 0 0 0-.233-1.23 1.367 1.367 0 0 0-1.967-.453 1.861 1.861 0 0 0-.62 1.919 1.423 1.423 0 0 0 1.409 1.127" transform="translate(.75 3)" style="fill:#ff9600"/>
        <g data-name="마스크 그룹 126" style="clip-path:url(#u203mf9yba)" transform="translate(.75 3)">
            <circle data-name="타원 166" cx="6.75" cy="6.75" r="6.75" transform="translate(-3 -5.25)" style="fill:#ffc43e"/>
        </g>
    </g>
</svg>
