<svg xmlns="http://www.w3.org/2000/svg" width="32" height="32" viewBox="0 0 32 32">
    <path data-name="사각형 35159" style="fill:none" d="M0 0h32v32H0z"/>
    <path data-name="패스 266441" d="M15.766 27.976 9.045 20.9a9.443 9.443 0 0 1-3.03-6.916 9.822 9.822 0 0 1 9.8-9.622h.4a9.814 9.814 0 0 1 9.771 9.605 9.557 9.557 0 0 1-3.173 7.046zm.081-22.011A8.222 8.222 0 0 0 7.615 14a7.825 7.825 0 0 0 2.533 5.739l.039.039 5.615 5.91 5.916-5.84a7.973 7.973 0 0 0 2.668-5.871 8.224 8.224 0 0 0-8.371-8.013h-.168" style="fill:#fff"/>
    <path data-name="패스 266442" d="M16 17.468a3.515 3.515 0 1 1 3.515-3.515A3.519 3.519 0 0 1 16 17.468m0-5.43a1.915 1.915 0 1 0 1.915 1.915A1.917 1.917 0 0 0 16 12.038" style="fill:#fff"/>
</svg>
