<svg xmlns="http://www.w3.org/2000/svg" width="32" height="32" viewBox="0 0 32 32">
    <path data-name="빼기 1" d="M12 16.427c-.075 0-7.526-.006-9.376-.49A2.971 2.971 0 0 1 .5 13.862 30.05 30.05 0 0 1 0 8.213a30.055 30.055 0 0 1 .5-5.648A2.974 2.974 0 0 1 2.624.49C4.473.006 11.925 0 12 0s7.527.006 9.377.49A2.972 2.972 0 0 1 23.5 2.565a30 30 0 0 1 .5 5.648 30 30 0 0 1-.5 5.648 2.969 2.969 0 0 1-2.121 2.075c-1.853.485-9.304.491-9.379.491zM9.481 4.635v6.952l6.157-3.477z" transform="translate(4 7.786)" style="fill:#888"/>
</svg>
